<svg xmlns="http://www.w3.org/2000/svg" xmlns:xlink="http://www.w3.org/1999/xlink" width="1080" zoomAndPan="magnify" viewBox="0 0 810 809.999993" height="1080" preserveAspectRatio="xMidYMid meet" version="1.0"><defs><clipPath id="0b88063e45"><path d="M 405 0 C 181.324219 0 0 181.324219 0 405 C 0 628.675781 181.324219 810 405 810 C 628.675781 810 810 628.675781 810 405 C 810 181.324219 628.675781 0 405 0 Z M 405 0 " clip-rule="nonzero"/></clipPath><clipPath id="7941e17366"><path d="M 0 0 L 810 0 L 810 810 L 0 810 Z M 0 0 " clip-rule="nonzero"/></clipPath><clipPath id="e165a718f7"><path d="M 405 0 C 181.324219 0 0 181.324219 0 405 C 0 628.675781 181.324219 810 405 810 C 628.675781 810 810 628.675781 810 405 C 810 181.324219 628.675781 0 405 0 Z M 405 0 " clip-rule="nonzero"/></clipPath><clipPath id="1bdba4a80f"><rect x="0" width="810" y="0" height="810"/></clipPath><clipPath id="ecc982581d"><path d="M 405 166.964844 L 769.644531 166.964844 L 769.644531 644 L 405 644 Z M 405 166.964844 " clip-rule="nonzero"/></clipPath><clipPath id="ac4627843d"><path d="M 587.320312 166.964844 C 486.628906 166.964844 405 273.535156 405 405 C 405 536.464844 486.628906 643.035156 587.320312 643.035156 C 688.015625 643.035156 769.644531 536.464844 769.644531 405 C 769.644531 273.535156 688.015625 166.964844 587.320312 166.964844 Z M 587.320312 166.964844 " clip-rule="nonzero"/></clipPath><clipPath id="40ccd68339"><path d="M 0 0.964844 L 364.644531 0.964844 L 364.644531 477 L 0 477 Z M 0 0.964844 " clip-rule="nonzero"/></clipPath><clipPath id="d72249eb41"><path d="M 182.320312 0.964844 C 81.628906 0.964844 0 107.535156 0 239 C 0 370.464844 81.628906 477.035156 182.320312 477.035156 C 283.015625 477.035156 364.644531 370.464844 364.644531 239 C 364.644531 107.535156 283.015625 0.964844 182.320312 0.964844 Z M 182.320312 0.964844 " clip-rule="nonzero"/></clipPath><clipPath id="c67c6ed5b1"><rect x="0" width="365" y="0" height="478"/></clipPath><clipPath id="d02beaf325"><path d="M 592.132812 345.878906 L 717.835938 345.878906 L 717.835938 514.796875 L 592.132812 514.796875 Z M 592.132812 345.878906 " clip-rule="nonzero"/></clipPath><clipPath id="a59854d039"><path d="M 654.984375 345.878906 C 620.269531 345.878906 592.132812 383.613281 592.132812 430.160156 C 592.132812 476.710938 620.269531 514.445312 654.984375 514.445312 C 689.695312 514.445312 717.835938 476.710938 717.835938 430.160156 C 717.835938 383.613281 689.695312 345.878906 654.984375 345.878906 Z M 654.984375 345.878906 " clip-rule="nonzero"/></clipPath><clipPath id="ed04303afb"><path d="M 0.132812 0.878906 L 125.835938 0.878906 L 125.835938 169.558594 L 0.132812 169.558594 Z M 0.132812 0.878906 " clip-rule="nonzero"/></clipPath><clipPath id="7a9b4aa129"><path d="M 62.984375 0.878906 C 28.269531 0.878906 0.132812 38.613281 0.132812 85.160156 C 0.132812 131.710938 28.269531 169.445312 62.984375 169.445312 C 97.695312 169.445312 125.835938 131.710938 125.835938 85.160156 C 125.835938 38.613281 97.695312 0.878906 62.984375 0.878906 Z M 62.984375 0.878906 " clip-rule="nonzero"/></clipPath><clipPath id="8c757b4e14"><rect x="0" width="126" y="0" height="170"/></clipPath></defs><g clip-path="url(#0b88063e45)"><g transform="matrix(1, 0, 0, 1, 0, 0.000000000000039746)"><g clip-path="url(#1bdba4a80f)"><g clip-path="url(#7941e17366)"><g clip-path="url(#e165a718f7)"><rect x="-178.2" width="1166.4" fill="#ffde69" height="1166.39999" y="-178.199998" fill-opacity="1"/></g></g></g></g></g><g clip-path="url(#ecc982581d)"><g clip-path="url(#ac4627843d)"><g transform="matrix(1, 0, 0, 1, 405, 166)"><g clip-path="url(#c67c6ed5b1)"><g clip-path="url(#40ccd68339)"><g clip-path="url(#d72249eb41)"><path fill="#ffffff" d="M 0 0.964844 L 364.644531 0.964844 L 364.644531 476.710938 L 0 476.710938 Z M 0 0.964844 " fill-opacity="1" fill-rule="nonzero"/></g></g></g></g></g></g><g clip-path="url(#d02beaf325)"><g clip-path="url(#a59854d039)"><g transform="matrix(1, 0, 0, 1, 592, 345)"><g clip-path="url(#8c757b4e14)"><g clip-path="url(#ed04303afb)"><g clip-path="url(#7a9b4aa129)"><path fill="#d4258e" d="M 0.132812 0.878906 L 125.835938 0.878906 L 125.835938 169.304688 L 0.132812 169.304688 Z M 0.132812 0.878906 " fill-opacity="1" fill-rule="nonzero"/></g></g></g></g></g></g></svg>