<?xml version="1.0" encoding="UTF-8"?>
<svg version="1.1" xmlns="http://www.w3.org/2000/svg" width="1080" height="1080">
<path d="M0 0 C356.4 0 712.8 0 1080 0 C1080 356.4 1080 712.8 1080 1080 C723.6 1080 367.2 1080 0 1080 C0 723.6 0 367.2 0 0 Z " fill="#FEFE00" transform="translate(0,0)"/>
<path d="M0 0 C173.91 0 347.82 0 527 0 C527 174.57 527 349.14 527 529 C526.67 529 526.34 529 526 529 C525.96241577 527.74678955 525.96241577 527.74678955 525.92407227 526.46826172 C525.82755139 523.29598615 525.72843014 520.12380419 525.62768555 516.95166016 C525.56431046 514.93267694 525.50379288 512.91360466 525.44335938 510.89453125 C525.0700545 499.23593283 524.60657849 487.69043795 522.54443359 476.18994141 C521.92453793 472.55785317 521.43211542 468.91480616 520.95703125 465.26171875 C519.011969 450.52478314 516.82141422 435.93425875 513.5 421.4375 C513.22776611 420.24664795 512.95553223 419.0557959 512.67504883 417.82885742 C508.9686187 402.13340484 504.44016144 386.72236612 499.3125 371.4375 C499.05332794 370.66241089 498.79415588 369.88732178 498.52713013 369.08874512 C491.04591506 346.77946224 482.12906749 325.23801997 472 304 C471.56075195 303.07622559 471.12150391 302.15245117 470.66894531 301.20068359 C455.09352334 268.67010435 435.54003849 237.97059044 413.26513672 209.61669922 C411.92895286 207.90920992 410.60644517 206.19169207 409.28515625 204.47265625 C404.18517129 197.86714067 398.92787611 191.55114768 393.25 185.4296875 C391.37207106 183.40178506 389.54976485 181.34672605 387.75 179.25 C375.66957094 165.39137694 362.93059394 151.45429125 348.86328125 139.5859375 C346.64528815 137.69808593 344.51757845 135.72297208 342.375 133.75 C337.33800255 129.20516719 332.05837606 125.03898809 326.69921875 120.88671875 C324.21736691 118.96149488 321.76460604 117.00664119 319.33203125 115.01953125 C310.53413924 107.83924107 301.46607203 101.27011781 292 95 C291.21431641 94.47760742 290.42863281 93.95521484 289.61914062 93.41699219 C278.28881036 85.90361715 266.81158075 78.73097545 255 72 C253.96190186 71.40372803 253.96190186 71.40372803 252.90283203 70.79541016 C224.74434322 54.66125182 195.53889608 41.88347342 165 31 C163.92540527 30.61312012 162.85081055 30.22624023 161.74365234 29.82763672 C114.3608861 12.89127954 63.45305021 3.04874465 13.1875 1.4375 C11.91068359 1.39431641 10.63386719 1.35113281 9.31835938 1.30664062 C6.2123135 1.20194245 3.10620754 1.09976562 0 1 C0 0.67 0 0.34 0 0 Z " fill="#FFFFFE" transform="translate(553,0)"/>
<path d="M0 0 C0.33 0 0.66 0 1 0 C1 169.29 1 338.58 1 513 C-167.63 513 -336.26 513 -510 513 C-510 512.67 -510 512.34 -510 512 C-505.73705853 511.31350033 -501.63618525 510.91395881 -497.31079102 510.81201172 C-459.08372021 509.72749525 -417.61726369 500.70764521 -381.41699219 488.79248047 C-378.57617932 487.86103819 -375.72921899 486.94935913 -372.8828125 486.03515625 C-348.14438724 478.01787376 -324.45726791 468.20587198 -301 457 C-300.10974121 456.57750977 -299.21948242 456.15501953 -298.30224609 455.71972656 C-264.96082923 439.81478775 -233.31409075 419.36096068 -204.52978516 396.22558594 C-203.11444012 395.09168359 -201.68851698 393.97101903 -200.26171875 392.8515625 C-195.20458253 388.87191876 -190.36442989 384.71588825 -185.6171875 380.37109375 C-183.48991971 378.44385263 -181.34178101 376.55108068 -179.17578125 374.66796875 C-175.14553347 371.14904216 -171.21202366 367.5378347 -167.3125 363.875 C-166.62551025 363.22974365 -165.93852051 362.5844873 -165.23071289 361.91967773 C-156.74095204 353.91045088 -148.22724214 345.84974567 -140.6640625 336.9453125 C-138.69860986 334.64767068 -136.66270129 332.42126877 -134.625 330.1875 C-130.77998408 325.92173318 -127.10239155 321.55084049 -123.49609375 317.08203125 C-121.69231442 314.85482955 -119.8742117 312.64679892 -118.03515625 310.44921875 C-100.14949221 288.9589055 -84.83067264 265.27019795 -71 241 C-70.40372803 239.96190186 -70.40372803 239.96190186 -69.79541016 238.90283203 C-48.72248869 202.12486003 -33.46492721 163.45045886 -21 123 C-20.71141113 122.07558105 -20.42282227 121.15116211 -20.12548828 120.19873047 C-8.0962017 81.41027048 -3.01338689 40.38046627 0 0 Z " fill="#FFFFFE" transform="translate(1079,567)"/>
<path d="M0 0 C0.33 0 0.66 0 1 0 C1.03963867 1.14549316 1.07927734 2.29098633 1.12011719 3.47119141 C1.95509882 26.87254499 3.24105126 49.86072504 7 73 C7.15726562 74.00788574 7.31453125 75.01577148 7.4765625 76.05419922 C9.25233818 87.38793699 11.48233195 98.6071633 13.9375 109.8125 C14.16614746 110.86074951 14.39479492 111.90899902 14.63037109 112.98901367 C18.10451522 128.44094516 22.65303264 143.55543285 27.6875 158.5625 C27.94667206 159.33758911 28.20584412 160.11267822 28.47286987 160.91125488 C35.95408494 183.22053776 44.87093251 204.76198003 55 226 C55.65887207 227.38566162 55.65887207 227.38566162 56.33105469 228.79931641 C72.78634625 263.16757732 93.55009606 295.87072123 117.67626953 325.37207031 C119.54024434 327.66439492 121.36089125 329.99035581 123.1875 332.3125 C126.59007014 336.56924232 130.18869772 340.618023 133.859375 344.64453125 C135.70684121 346.67741834 137.51707324 348.73381416 139.3125 350.8125 C150.44261458 363.55086509 162.02785054 376.2939641 174.95703125 387.23828125 C177.10528312 389.09078907 179.18622857 391.00851824 181.26464844 392.9387207 C187.31313967 398.55122448 193.54074437 403.86056521 200 409 C200.51224121 409.41185547 201.02448242 409.82371094 201.55224609 410.24804688 C216.11574007 421.95517712 231.27820044 432.9005413 247 443 C247.76086914 443.48936035 248.52173828 443.9787207 249.30566406 444.48291016 C277.03329409 462.21158798 306.47981576 477.66273469 337 490 C338.49587646 490.60690674 338.49587646 490.60690674 340.02197266 491.22607422 C394.7489757 513.26430536 453.2090344 525.3039669 512 529 C512 529.33 512 529.66 512 530 C343.04 530 174.08 530 0 530 C0 355.1 0 180.2 0 0 Z " fill="#FFFFFE" transform="translate(0,550)"/>
<path d="M0 0 C173.91 0 347.82 0 527 0 C527 0.33 527 0.66 527 1 C525.80213867 1.04487549 524.60427734 1.08975098 523.37011719 1.13598633 C518.82194226 1.30937421 514.27446929 1.49756865 509.72705078 1.68969727 C507.77831403 1.77008226 505.82941849 1.84672615 503.88037109 1.91918945 C491.10497196 2.39736005 478.66800149 3.52378333 466.06018066 5.65493774 C463.39931723 6.10060911 460.73169484 6.49443091 458.0625 6.88671875 C411.60580159 14.09892783 366.02909978 27.03945721 323 46 C322.319375 46.29938477 321.63875 46.59876953 320.9375 46.90722656 C316.57871419 48.84420818 312.28523883 50.90705492 308 53 C307.08589355 53.44150391 306.17178711 53.88300781 305.22998047 54.33789062 C269.84918957 71.46976018 236.17568088 92.14287817 205.5078125 116.79199219 C204.15835835 117.87312871 202.79858354 118.94135375 201.4375 120.0078125 C184.63971198 133.21396822 169.06923583 147.8752821 153.9375 162.9375 C152.90230225 163.96568848 152.90230225 163.96568848 151.84619141 165.01464844 C147.36116407 169.51386544 143.13905897 174.1825665 139 179 C137.9776846 180.16765005 136.95427943 181.33434705 135.9296875 182.5 C123.14929164 197.11415888 111.16734958 212.11415209 100 228 C99.52320801 228.67530762 99.04641602 229.35061523 98.55517578 230.04638672 C64.45158817 278.47419734 38.74554664 332.19718515 22 389 C21.76361816 389.79341797 21.52723633 390.58683594 21.28369141 391.40429688 C13.12948018 419.06668431 8.12359132 447.15530274 4.69694519 475.74822998 C4.39317399 478.23090763 4.08458742 480.6634183 3.47436523 483.09155273 C2.83315668 485.67123739 2.6676035 488.20998089 2.46484375 490.859375 C2.33432617 492.53193359 2.33432617 492.53193359 2.20117188 494.23828125 C2.0706543 495.97658203 2.0706543 495.97658203 1.9375 497.75 C1.84662109 498.92433594 1.75574219 500.09867187 1.66210938 501.30859375 C1.43836385 504.20550948 1.21777821 507.10263056 1 510 C0.67 510 0.34 510 0 510 C0 341.7 0 173.4 0 0 Z " fill="#FFFFFE" transform="translate(0,0)"/>
<path d="M0 0 C2.47966474 1.94939798 4.85763012 3.97668218 7.2265625 6.05859375 C7.96132813 6.65027344 8.69609375 7.24195313 9.453125 7.8515625 C14.87856993 12.34720503 19.11354004 17.44624132 23.33374023 23.04736328 C26.07156779 26.67441282 28.94424818 29.89485236 32.2265625 33.05859375 C50.59481869 51.88089672 57.53723363 75.90544491 57.46875 101.54614258 C57.10580283 128.88287004 45.33031349 151.20005783 26.046875 170.20703125 C13.46881811 181.88985277 -1.40615751 188.62014249 -17.7734375 193.05859375 C-18.45905762 193.2484082 -19.14467773 193.43822266 -19.85107422 193.63378906 C-43.25652212 199.52599594 -67.01486472 193.59560506 -87.7265625 182.47265625 C-99.17464321 175.61050261 -108.91530831 166.79959034 -116.86889648 156.12841797 C-119.61459311 152.45566225 -122.477609 149.27050601 -125.8359375 146.12109375 C-143.17636963 129.19287474 -151.5088279 105.67986066 -152.17163086 81.84423828 C-152.30598954 70.61318766 -151.50338581 60.68563584 -147.7734375 50.05859375 C-147.53206055 49.36330566 -147.29068359 48.66801758 -147.04199219 47.95166016 C-138.03337114 22.58587624 -119.69713266 3.12729808 -95.5234375 -8.62890625 C-64.59268212 -22.06715785 -27.95803671 -19.5706257 0 0 Z " fill="#D3258D" transform="translate(642.7734375,596.94140625)"/>
<path d="M0 0 C4.26793288 1.5556017 6.56844056 4.76904824 9.25 8.25 C9.97243896 9.18283813 9.97243896 9.18283813 10.70947266 10.13452148 C27.90386324 32.81958179 33.62532664 58.25594833 30.609375 86.3203125 C26.73010664 110.93874631 12.43521645 132.6816028 -7 148 C-18.54884521 156.14015522 -30.44126514 161.32316525 -44 165 C-45.02843018 165.28472168 -45.02843018 165.28472168 -46.07763672 165.57519531 C-69.48308462 171.46740219 -93.24142722 165.53701131 -113.953125 154.4140625 C-125.65847599 147.39769714 -136.08420238 138.11161653 -144 127 C-140.35125236 127 -139.65173938 127.81070698 -136.8125 130 C-114.73210533 145.76259389 -90.62166783 149.52406328 -63.9375 146.375 C-56.31334997 144.92620599 -49.12315556 142.01130371 -42 139 C-41.09378906 138.61972656 -40.18757812 138.23945312 -39.25390625 137.84765625 C-17.22322329 127.68243144 -0.72732324 108.43610685 8 86 C9.82417652 80.3950617 11.24612762 74.68910015 12.55444336 68.94433594 C12.85339597 67.6397559 13.18315371 66.34188416 13.54199219 65.05249023 C17.78549308 46.03590601 12.48788701 21.54870326 2.1875 5.3125 C1.465625 4.219375 0.74375 3.12625 0 2 C0 1.34 0 0.68 0 0 Z " fill="#6DC4CE" transform="translate(669,625)"/>
</svg>
